<svg width="384" height="384" viewBox="0 0 384 384" fill="none" xmlns="http://www.w3.org/2000/svg">
<g clip-path="url(#clip0_1667_31051)">
<path d="M64 320V64L320 320H64Z" fill="#7E57C2"/>
<path d="M192 192L320 64V320L192 192Z" fill="#F1F5F9"/>
<path d="M192 192L313.172 70.8284C315.691 68.3086 320 70.0932 320 73.6569V320L192 192Z" fill="url(#paint0_linear_1667_31051)"/>
<path d="M64 64L320 320H80C71.1634 320 64 312.837 64 304V64Z" fill="url(#paint1_linear_1667_31051)"/>
</g>
<defs>
<linearGradient id="paint0_linear_1667_31051" x1="320" y1="64" x2="192" y2="192" gradientUnits="userSpaceOnUse">
<stop offset="0.5" stop-color="#94A3B8" stop-opacity="0"/>
<stop offset="0.96" stop-color="#94A3B8" stop-opacity="0.25"/>
<stop offset="0.99" stop-color="#94A3B8" stop-opacity="0.5"/>
<stop offset="1" stop-color="#94A3B8"/>
</linearGradient>
<linearGradient id="paint1_linear_1667_31051" x1="100.571" y1="-228.571" x2="-192" y2="64" gradientUnits="userSpaceOnUse">
<stop offset="0.5" stop-color="#94A3B8" stop-opacity="0"/>
<stop offset="0.96" stop-color="#94A3B8" stop-opacity="0.25"/>
<stop offset="0.99" stop-color="#94A3B8" stop-opacity="0.5"/>
<stop offset="1" stop-color="#94A3B8"/>
</linearGradient>
<clipPath id="clip0_1667_31051">
<path d="M64 64H320V304C320 312.837 312.837 320 304 320H80C71.1634 320 64 312.837 64 304V64Z" fill="white"/>
</clipPath>
</defs>
</svg>
