<svg width="320" height="320" viewBox="0 0 320 320" fill="none" xmlns="http://www.w3.org/2000/svg">
<g clip-path="url(#clip0_1667_31051)">
<path d="M32 288V32L288 288H32Z" fill="#7E57C2"/>
<path d="M160 160L288 32V288L160 160Z" fill="#F1F5F9"/>
<path d="M160 160L281.172 38.8284C283.691 36.3086 288 38.0932 288 41.6569V288L160 160Z" fill="url(#paint0_linear_1667_31051)"/>
<path d="M32 32L288 288H48C39.1634 288 32 280.837 32 272V32Z" fill="url(#paint1_linear_1667_31051)"/>
</g>
<defs>
<linearGradient id="paint0_linear_1667_31051" x1="288" y1="32" x2="160" y2="160" gradientUnits="userSpaceOnUse">
<stop offset="0.5" stop-color="#94A3B8" stop-opacity="0"/>
<stop offset="0.96" stop-color="#94A3B8" stop-opacity="0.25"/>
<stop offset="0.99" stop-color="#94A3B8" stop-opacity="0.5"/>
<stop offset="1" stop-color="#94A3B8"/>
</linearGradient>
<linearGradient id="paint1_linear_1667_31051" x1="68.5714" y1="-260.571" x2="-224" y2="32" gradientUnits="userSpaceOnUse">
<stop offset="0.5" stop-color="#94A3B8" stop-opacity="0"/>
<stop offset="0.96" stop-color="#94A3B8" stop-opacity="0.25"/>
<stop offset="0.99" stop-color="#94A3B8" stop-opacity="0.5"/>
<stop offset="1" stop-color="#94A3B8"/>
</linearGradient>
<clipPath id="clip0_1667_31051">
<path d="M32 32H288V272C288 280.837 280.837 288 272 288H48C39.1634 288 32 280.837 32 272V32Z" fill="white"/>
</clipPath>
</defs>
</svg>
