<svg width="384" height="384" viewBox="0 0 384 384" fill="none" xmlns="http://www.w3.org/2000/svg">
<rect width="384" height="384" rx="64" fill="white"/>
<g filter="url(#filter0_dd_1667_31051)">
<g clip-path="url(#clip0_1667_31051)">
<path d="M64 320V64L320 320H64Z" fill="#7E57C2"/>
<path d="M192 192L320 64V320L192 192Z" fill="#F1F5F9"/>
<path d="M192 192L313.172 70.8284C315.691 68.3086 320 70.0932 320 73.6569V320L192 192Z" fill="url(#paint0_linear_1667_31051)"/>
<path d="M64 64L320 320H80C71.1634 320 64 312.837 64 304V64Z" fill="url(#paint1_linear_1667_31051)"/>
</g>
</g>
<defs>
<filter id="filter0_dd_1667_31051" x="52" y="62" width="280" height="280" filterUnits="userSpaceOnUse" color-interpolation-filters="sRGB">
<feFlood flood-opacity="0" result="BackgroundImageFix"/>
<feColorMatrix in="SourceAlpha" type="matrix" values="0 0 0 0 0 0 0 0 0 0 0 0 0 0 0 0 0 0 127 0" result="hardAlpha"/>
<feMorphology radius="2" operator="erode" in="SourceAlpha" result="effect1_dropShadow_1667_31051"/>
<feOffset dy="4"/>
<feGaussianBlur stdDeviation="3"/>
<feComposite in2="hardAlpha" operator="out"/>
<feColorMatrix type="matrix" values="0 0 0 0 0 0 0 0 0 0 0 0 0 0 0 0 0 0 0.05 0"/>
<feBlend mode="normal" in2="BackgroundImageFix" result="effect1_dropShadow_1667_31051"/>
<feColorMatrix in="SourceAlpha" type="matrix" values="0 0 0 0 0 0 0 0 0 0 0 0 0 0 0 0 0 0 127 0" result="hardAlpha"/>
<feMorphology radius="3" operator="erode" in="SourceAlpha" result="effect2_dropShadow_1667_31051"/>
<feOffset dy="10"/>
<feGaussianBlur stdDeviation="7.5"/>
<feComposite in2="hardAlpha" operator="out"/>
<feColorMatrix type="matrix" values="0 0 0 0 0 0 0 0 0 0 0 0 0 0 0 0 0 0 0.1 0"/>
<feBlend mode="normal" in2="effect1_dropShadow_1667_31051" result="effect2_dropShadow_1667_31051"/>
<feBlend mode="normal" in="SourceGraphic" in2="effect2_dropShadow_1667_31051" result="shape"/>
</filter>
<linearGradient id="paint0_linear_1667_31051" x1="320" y1="64" x2="192" y2="192" gradientUnits="userSpaceOnUse">
<stop offset="0.5" stop-color="#94A3B8" stop-opacity="0"/>
<stop offset="0.96" stop-color="#94A3B8" stop-opacity="0.25"/>
<stop offset="0.99" stop-color="#94A3B8" stop-opacity="0.5"/>
<stop offset="1" stop-color="#94A3B8"/>
</linearGradient>
<linearGradient id="paint1_linear_1667_31051" x1="100.571" y1="-228.571" x2="-192" y2="64" gradientUnits="userSpaceOnUse">
<stop offset="0.5" stop-color="#94A3B8" stop-opacity="0"/>
<stop offset="0.96" stop-color="#94A3B8" stop-opacity="0.25"/>
<stop offset="0.99" stop-color="#94A3B8" stop-opacity="0.5"/>
<stop offset="1" stop-color="#94A3B8"/>
</linearGradient>
<clipPath id="clip0_1667_31051">
<path d="M64 64H320V304C320 312.837 312.837 320 304 320H80C71.1634 320 64 312.837 64 304V64Z" fill="white"/>
</clipPath>
</defs>
</svg>
